<?xml version="1.0" standalone="no"?>
<!DOCTYPE svg PUBLIC "-//W3C//DTD SVG 20010904//EN"
 "http://www.w3.org/TR/2001/REC-SVG-20010904/DTD/svg10.dtd">
<svg version="1.0" xmlns="http://www.w3.org/2000/svg"
 width="499.000000pt" height="539.000000pt" viewBox="0 0 499.000000 539.000000"
 preserveAspectRatio="xMidYMid meet">

<g transform="translate(0.000000,539.000000) scale(0.100000,-0.100000)"
fill="#000000" stroke="none">
<path d="M3128 4803 l-3 -398 -285 0 -285 0 -3 93 -3 92 -419 0 -420 0 -2
-322 -3 -323 -352 -3 -353 -2 0 -810 0 -810 1485 0 1485 0 0 1440 0 1440 -420
0 -420 0 -2 -397z m707 245 c3 -13 4 -601 3 -1308 l-3 -1285 -285 0 -285 0 -3
1295 c-1 712 0 1301 3 1308 3 9 70 12 284 12 l281 0 5 -22z m-1427 -596 c10
-7 12 -214 10 -1003 l-3 -994 -285 0 -285 0 -3 989 c-1 722 1 992 9 1002 9 11
65 14 278 14 146 0 272 -4 279 -8z m717 -1092 l0 -905 -285 0 -285 0 -3 895
c-1 492 0 901 3 908 3 10 66 12 287 10 l283 -3 0 -905z m-1420 -230 l0 -675
-285 0 -285 0 -3 655 c-1 360 0 665 3 678 l5 22 283 -2 282 -3 0 -675z"/>
<path d="M1117 1693 c-9 -15 -17 -76 -98 -728 -38 -314 -73 -587 -76 -609 l-6
-38 254 5 c177 4 274 10 320 21 291 68 477 254 540 541 20 92 18 317 -5 390
-63 208 -207 341 -429 396 -95 23 -489 40 -500 22z m432 -158 c119 -28 202
-82 272 -174 58 -78 81 -163 82 -296 1 -250 -100 -433 -288 -525 -95 -47 -190
-66 -363 -75 -110 -6 -123 -4 -129 11 -3 9 1 76 10 148 32 249 96 781 103 846
4 36 9 68 11 73 8 13 236 7 302 -8z"/>
<path d="M2435 1668 c-3 -18 -36 -289 -75 -603 -38 -314 -74 -603 -80 -643
-15 -110 -20 -102 65 -102 69 0 75 2 80 23 2 12 21 155 40 317 20 162 38 305
41 318 l4 22 230 0 229 0 5 33 c3 17 7 50 8 72 l3 40 -227 3 -228 2 1 28 c0
15 10 104 22 197 l22 170 240 5 240 5 7 45 c3 25 7 57 7 73 l1 27 -315 0 -314
0 -6 -32z"/>
<path d="M3345 1688 c-2 -7 -40 -308 -85 -668 -44 -360 -82 -665 -85 -677 -5
-22 -3 -23 75 -23 44 0 80 2 80 4 0 15 71 574 74 582 3 7 54 13 143 16 205 8
304 44 391 143 54 61 83 139 89 241 15 217 -100 351 -328 384 -99 15 -349 13
-354 -2z m425 -168 c83 -47 120 -132 102 -239 -26 -154 -139 -219 -379 -221
-34 0 -64 4 -67 8 -3 5 -1 38 4 73 5 36 16 125 25 199 8 74 18 152 21 174 l6
38 122 -4 c105 -3 127 -7 166 -28z"/>
</g>
</svg>
