<?xml version="1.0" standalone="no"?>
<!DOCTYPE svg PUBLIC "-//W3C//DTD SVG 20010904//EN"
 "http://www.w3.org/TR/2001/REC-SVG-20010904/DTD/svg10.dtd">
<svg version="1.0" xmlns="http://www.w3.org/2000/svg"
 width="450.000000pt" height="450.000000pt" viewBox="0 0 450.000000 450.000000"
 preserveAspectRatio="xMidYMid meet">

<g transform="translate(0.000000,450.000000) scale(0.100000,-0.100000)"
fill="#000000" stroke="none">
<path d="M1322 2783 c207 -2 549 -2 760 0 211 1 41 2 -377 2 -418 0 -590 -1
-383 -2z"/>
<path d="M2610 2565 c0 -4 145 -105 201 -140 28 -17 104 -70 109 -75 3 -3 14
-10 25 -16 17 -9 20 -23 23 -86 3 -70 5 -77 36 -107 l33 -32 117 31 c82 21
143 45 204 79 48 26 118 65 156 86 l69 37 -31 20 -31 19 -38 -24 c-21 -13 -44
-31 -51 -40 -7 -8 -21 -13 -32 -10 -11 3 -20 0 -20 -6 0 -7 -9 -9 -25 -5 -18
4 -27 1 -31 -10 -3 -9 -9 -14 -13 -11 -4 2 -40 1 -79 -4 -40 -4 -72 -4 -72 1
0 10 -29 -2 -62 -25 -16 -12 -24 -26 -21 -36 4 -13 3 -14 -5 -2 -9 12 -13 12
-26 2 -14 -12 -16 -8 -16 37 0 33 5 54 16 63 14 11 13 14 -7 30 l-22 16 27 36
c18 23 26 44 23 59 -4 20 -4 19 -6 -5 -1 -20 -5 -26 -13 -21 -7 4 -10 4 -7 0
4 -4 -9 -23 -27 -43 -19 -20 -34 -40 -34 -46 0 -6 -8 -3 -18 6 -10 10 -23 17
-29 17 -6 0 -16 7 -23 15 -15 18 -9 19 25 3 20 -9 28 -9 38 2 10 10 9 12 -6 7
-10 -4 -29 0 -43 9 -15 10 -24 12 -24 5 0 -18 -14 -13 -49 20 -18 16 -40 28
-47 25 -7 -3 -21 5 -31 17 -10 12 -38 33 -63 46 -25 13 -54 32 -66 42 -20 18
-34 24 -34 14z m924 -216 c-3 -5 -10 -7 -15 -3 -5 3 -7 10 -3 15 3 5 10 7 15
3 5 -3 7 -10 3 -15z m-527 -23 c-15 -31 -20 -27 -11 8 3 14 10 24 14 21 5 -3
3 -16 -3 -29z m476 2 c4 -10 8 -10 15 1 6 8 12 9 16 3 8 -13 -17 -22 -46 -15
-16 3 -19 2 -9 -5 8 -6 9 -12 3 -16 -14 -9 -22 20 -9 33 14 14 24 14 30 -1z
m-443 -2 c0 -3 -4 -8 -10 -11 -5 -3 -10 -1 -10 4 0 6 5 11 10 11 6 0 10 -2 10
-4z m267 -82 c-3 -3 -12 -4 -19 -1 -8 3 -5 6 6 6 11 1 17 -2 13 -5z"/>
<path d="M3071 2504 c0 -11 3 -14 6 -6 3 7 2 16 -1 19 -3 4 -6 -2 -5 -13z"/>
<path d="M247 1873 c-3 -5 -6 -97 -6 -205 l-2 -198 40 0 41 0 0 130 c0 100 3
128 13 124 6 -3 54 -61 105 -130 92 -122 95 -124 133 -124 l40 0 -5 158 c-3
86 -5 178 -5 205 -1 47 -1 47 -36 47 -34 0 -35 -1 -35 -42 -1 -126 -11 -222
-23 -207 -2 2 -46 59 -97 127 -86 112 -96 122 -126 122 -18 0 -35 -3 -37 -7z"/>
<path d="M806 1843 c-3 -21 -6 -113 -6 -205 l0 -168 160 0 160 0 0 35 0 35
-115 0 -115 0 0 50 0 50 95 0 95 0 0 35 0 35 -95 0 -95 0 0 50 0 50 110 0 110
0 0 35 0 35 -149 0 -148 0 -7 -37z"/>
<path d="M1271 1873 c0 -5 30 -98 67 -208 l68 -200 37 0 38 0 42 127 c41 120
52 147 60 137 2 -2 24 -62 49 -134 l45 -130 38 0 c36 0 38 1 55 55 9 30 40
124 68 208 l50 152 -43 0 c-38 0 -44 -3 -49 -27 -17 -70 -79 -252 -85 -249 -3
3 -27 65 -51 140 l-45 136 -33 0 c-38 0 -36 3 -90 -154 -20 -60 -42 -111 -48
-113 -6 -2 -15 16 -22 39 -15 61 -48 168 -61 201 -9 23 -16 27 -51 27 -22 0
-40 -3 -39 -7z"/>
<path d="M2300 1872 c0 -4 20 -39 44 -77 103 -161 106 -168 106 -250 l0 -75
40 0 40 0 0 81 0 81 75 119 c41 65 75 120 75 124 0 3 -19 5 -42 5 -43 -1 -43
-1 -92 -81 -27 -44 -54 -78 -60 -76 -6 2 -31 38 -56 80 -45 77 -45 77 -87 77
-24 0 -43 -3 -43 -8z"/>
<path d="M2909 1860 c-51 -27 -85 -71 -105 -135 -15 -46 -16 -60 -5 -97 20
-69 58 -115 117 -143 91 -43 181 -28 251 41 100 100 77 260 -46 328 -61 33
-156 36 -212 6z m156 -64 c52 -22 77 -69 72 -135 -3 -47 -9 -59 -40 -88 -109
-100 -269 34 -199 167 20 37 72 70 110 70 12 0 38 -6 57 -14z"/>
<path d="M3418 1873 c-2 -5 -5 -97 -7 -205 l-3 -198 41 0 41 0 0 65 0 65 44 0
c44 0 45 -1 85 -65 l41 -65 51 0 51 0 -46 65 c-25 36 -46 68 -46 71 0 3 18 22
40 43 36 34 40 43 40 87 0 64 -16 93 -65 121 -35 20 -54 23 -152 23 -61 0
-113 -3 -115 -7z m238 -98 c20 -30 12 -70 -16 -85 -17 -9 -90 -15 -137 -11 -9
1 -13 20 -13 61 l0 60 75 0 c68 0 76 -2 91 -25z"/>
<path d="M3939 1778 c-1 -57 -3 -149 -5 -205 l-3 -103 44 0 45 0 0 63 c0 53 4
67 23 85 13 12 26 22 29 22 4 0 34 -38 68 -85 l61 -85 50 0 c59 0 62 -11 -44
129 l-78 104 28 31 c15 17 52 57 82 89 l55 57 -47 0 c-47 0 -50 -2 -120 -76
-40 -42 -76 -82 -80 -90 -19 -33 -27 -9 -27 76 l0 90 -40 0 -40 0 -1 -102z"/>
<path d="M308 1215 c-34 -19 -48 -44 -48 -87 0 -55 22 -74 115 -103 113 -34
140 -71 90 -120 -33 -34 -104 -34 -162 -1 -23 13 -44 21 -47 18 -15 -14 -3
-33 32 -50 115 -59 232 -19 232 79 0 54 -29 79 -124 107 -88 27 -113 52 -96
96 5 14 22 31 37 37 33 12 99 4 130 -16 18 -12 23 -12 32 -1 32 39 -133 74
-191 41z"/>
<path d="M570 1210 c0 -18 6 -20 65 -20 l65 0 0 -170 c0 -163 1 -170 20 -170
19 0 20 7 20 170 l0 169 63 3 c47 2 62 7 62 18 0 13 -24 15 -147 18 -143 2
-148 2 -148 -18z"/>
<path d="M1016 1178 c-67 -146 -146 -323 -146 -325 0 -2 8 -3 19 -3 13 0 25
15 39 50 l21 51 108 -3 108 -3 22 -47 c13 -27 30 -48 38 -48 21 0 19 11 -14
82 -38 82 -92 202 -116 256 -26 59 -49 56 -79 -10z m119 -185 c-5 -15 -150
-18 -159 -4 -6 9 56 153 77 179 7 9 20 -11 49 -75 21 -48 36 -93 33 -100z"/>
<path d="M1250 1210 c0 -16 8 -19 61 -22 l61 -3 2 -165 c1 -155 2 -165 20
-165 18 0 19 9 17 168 l-2 167 65 0 c59 0 66 2 66 20 0 19 -7 20 -145 20 -137
0 -145 -1 -145 -20z"/>
<path d="M1620 1040 l0 -191 135 3 c169 4 185 21 25 28 l-115 5 -3 67 -3 67
103 3 c84 2 103 6 103 18 0 12 -19 15 -100 17 l-100 2 -3 65 -3 66 116 0 c108
0 115 1 115 20 0 19 -7 20 -135 20 l-135 0 0 -190z"/>
<path d="M2178 1214 c-34 -18 -48 -43 -48 -86 0 -55 22 -75 115 -103 113 -35
140 -71 90 -120 -33 -34 -96 -34 -158 -1 -25 14 -48 22 -51 19 -15 -15 -3 -34
32 -51 82 -42 172 -35 212 16 17 21 21 36 17 71 -6 55 -25 71 -123 99 -80 24
-111 53 -99 92 15 48 114 63 171 25 12 -8 24 -11 28 -8 43 44 -118 84 -186 47z"/>
<path d="M2480 1040 l0 -190 135 0 c113 0 135 2 135 15 0 12 -19 15 -115 15
l-115 0 0 70 0 70 98 0 c54 0 101 3 105 6 3 3 3 13 0 21 -5 12 -24 14 -102 11
l-96 -3 -3 68 -3 67 116 0 c108 0 115 1 115 20 0 19 -7 20 -135 20 l-135 0 0
-190z"/>
<path d="M2840 1040 c0 -162 2 -190 15 -190 13 0 15 23 15 150 0 92 4 150 10
150 9 0 44 -42 185 -224 70 -90 90 -95 89 -21 -4 321 -4 325 -19 325 -13 0
-15 -23 -15 -150 0 -82 -3 -150 -7 -150 -5 1 -60 68 -123 150 -68 88 -122 149
-132 149 -17 1 -18 -14 -18 -189z"/>
<path d="M3383 1183 c-13 -27 -41 -88 -64 -138 -22 -49 -49 -109 -60 -132 -23
-50 -24 -63 -4 -63 8 0 25 21 37 48 l23 47 106 3 106 3 22 -51 c15 -36 27 -50
41 -50 11 0 20 2 20 4 0 3 -32 75 -100 221 -10 22 -30 66 -44 98 -33 72 -53
75 -83 10z m112 -158 c7 -16 11 -33 9 -37 -7 -10 -161 -11 -167 0 -3 4 16 50
40 102 l44 95 30 -65 c17 -36 36 -78 44 -95z"/>
<path d="M3617 1224 c-4 -4 -7 -13 -7 -21 0 -9 18 -13 65 -13 l65 0 0 -170 c0
-163 1 -170 20 -170 19 0 20 7 20 170 l0 169 63 3 c47 2 62 7 62 18 0 12 -24
15 -141 18 -77 1 -143 -1 -147 -4z"/>
<path d="M3985 1217 c-3 -7 -4 -91 -3 -187 l3 -175 138 -3 c116 -2 137 0 137
12 0 13 -21 16 -117 18 l-118 3 0 65 0 65 103 3 c82 2 102 6 102 17 0 8 -6 16
-12 16 -11 1 -104 6 -180 8 -15 1 -18 11 -18 66 l0 64 118 3 c96 2 117 6 117
18 0 21 -263 28 -270 7z"/>
<path d="M1832 601 c-60 -21 -84 -40 -121 -96 -21 -33 -26 -52 -26 -105 0 -53
5 -72 26 -105 50 -76 104 -105 197 -105 117 0 202 76 210 190 8 113 -45 194
-150 225 -64 19 -71 19 -136 -4z m156 -105 c35 -33 37 -38 37 -96 0 -58 -2
-63 -37 -96 -31 -28 -46 -34 -80 -34 -61 0 -102 28 -123 84 -17 44 -17 48 0
92 21 56 62 84 123 84 34 0 49 -6 80 -34z"/>
<path d="M2375 611 c-106 -27 -165 -104 -165 -214 0 -66 31 -129 82 -170 32
-26 48 -31 112 -35 63 -4 82 -1 121 18 58 28 65 45 33 77 l-25 25 -34 -21
c-84 -51 -185 -4 -196 90 -13 118 96 189 196 128 l34 -21 23 29 c13 15 22 33
20 38 -5 18 -80 53 -126 59 -25 2 -58 1 -75 -3z"/>
<path d="M4055 610 c-88 -18 -130 -102 -90 -179 14 -27 39 -40 160 -83 42 -15
55 -39 35 -63 -19 -22 -98 -19 -139 6 l-33 20 -24 -22 c-33 -31 -30 -43 14
-70 31 -20 51 -23 124 -24 82 0 88 1 117 29 75 72 42 180 -63 206 -23 6 -58
18 -79 27 -32 14 -37 21 -35 42 5 41 47 50 109 23 l51 -21 19 22 c10 12 18 28
19 34 1 31 -122 66 -185 53z"/>
<path d="M270 399 l0 -212 115 5 c105 5 120 8 163 34 54 34 102 114 102 173 0
41 -32 116 -62 148 -38 40 -118 63 -223 63 l-95 0 0 -211z m224 112 c39 -26
55 -57 56 -108 0 -87 -41 -126 -134 -127 l-61 -1 -3 114 c-1 63 0 121 2 128 8
21 105 17 140 -6z"/>
<path d="M750 400 l0 -210 154 0 c145 0 154 1 159 20 3 11 3 29 0 40 -5 18
-14 20 -114 20 l-109 0 0 45 0 44 96 3 97 3 1 38 1 37 -97 0 -98 0 0 45 0 45
110 0 110 0 0 40 0 40 -155 0 -155 0 0 -210z"/>
<path d="M1165 498 c-3 -62 -5 -156 -3 -208 l3 -95 40 0 40 0 3 128 c1 70 6
127 10 127 4 0 31 -37 61 -82 l53 -81 52 81 c28 44 54 81 58 81 4 1 9 -56 10
-126 l3 -128 43 -3 42 -3 0 210 0 211 -47 0 -48 0 -50 -82 c-28 -45 -55 -83
-60 -85 -6 -1 -33 34 -60 80 l-50 82 -47 3 -46 3 -7 -113z"/>
<path d="M2682 403 l3 -208 43 -3 42 -3 0 65 c0 36 3 67 8 69 4 2 23 2 42 0
30 -5 41 -14 75 -67 39 -59 41 -61 88 -64 27 -2 47 1 47 7 0 6 -18 36 -40 67
-22 32 -40 61 -40 66 0 4 17 23 37 42 35 31 37 38 38 92 0 111 -54 144 -237
144 l-108 0 2 -207z m236 107 c28 -26 28 -61 1 -86 -16 -14 -36 -19 -82 -19
l-62 0 -3 49 c-5 72 -1 76 66 76 45 0 63 -5 80 -20z"/>
<path d="M3260 578 c-14 -36 -21 -52 -104 -243 -31 -72 -56 -134 -56 -138 0
-5 19 -7 43 -5 39 3 43 6 61 46 l19 42 93 0 92 0 18 -45 c16 -44 18 -45 60
-45 24 0 44 5 44 10 0 6 -9 29 -19 53 -11 23 -40 92 -66 152 -92 220 -83 205
-130 205 -39 0 -44 -3 -55 -32z m87 -148 c12 -30 19 -58 17 -62 -6 -9 -104
-11 -104 -2 0 21 47 123 55 121 6 -2 20 -28 32 -57z"/>
<path d="M3540 570 l0 -39 61 -3 61 -3 1 -165 2 -165 42 -3 43 -3 2 168 3 168
63 3 62 3 0 39 0 40 -170 0 -170 0 0 -40z"/>
</g>
</svg>
