<?xml version="1.0" standalone="no"?>
<!DOCTYPE svg PUBLIC "-//W3C//DTD SVG 20010904//EN"
 "http://www.w3.org/TR/2001/REC-SVG-20010904/DTD/svg10.dtd">
<svg version="1.0" xmlns="http://www.w3.org/2000/svg"
 width="2100.000000pt" height="1099.000000pt" viewBox="0 0 2100.000000 1099.000000"
 preserveAspectRatio="xMidYMid meet">

<g transform="translate(0.000000,1099.000000) scale(0.100000,-0.100000)"
fill="#000000" stroke="none">
<path d="M5742 9839 c-75 -13 -192 -70 -245 -118 -108 -100 -167 -230 -167
-371 0 -101 16 -166 61 -251 49 -92 125 -163 226 -211 74 -36 94 -41 176 -46
155 -8 280 33 378 125 285 264 188 728 -177 853 -67 23 -181 32 -252 19z"/>
<path d="M7112 9828 c-6 -6 -12 -22 -12 -35 0 -49 -53 -268 -91 -380 -136
-394 -392 -680 -792 -882 -288 -146 -556 -210 -877 -211 -197 0 -364 18 -598
65 -200 40 -198 40 -206 19 -9 -23 14 -45 112 -110 242 -159 554 -279 877
-334 214 -38 597 -37 739 1 21 6 40 8 42 6 2 -2 -25 -64 -60 -138 -229 -479
-294 -1060 -180 -1603 26 -121 79 -300 115 -382 19 -45 45 -57 67 -31 6 6 15
82 22 167 36 503 104 797 255 1105 82 167 176 310 302 460 470 560 1012 783
1763 725 69 -5 133 -7 142 -4 12 3 18 15 18 35 0 38 -49 75 -195 144 -193 93
-408 149 -690 181 -240 27 -562 11 -724 -36 -19 -5 -36 -8 -38 -6 -2 2 17 64
41 138 109 325 137 726 70 984 -29 113 -66 158 -102 122z"/>
<path d="M15925 7149 c-520 -53 -947 -237 -1268 -548 -56 -54 -67 -61 -63 -41
6 26 96 483 96 488 0 1 -203 1 -452 0 l-452 -3 -59 -300 c-117 -606 -249
-1283 -272 -1405 -13 -69 -45 -231 -70 -360 -25 -129 -57 -293 -71 -365 -63
-328 -76 -394 -119 -615 -25 -129 -57 -291 -70 -360 -13 -69 -56 -289 -95
-490 -39 -201 -113 -583 -165 -850 -52 -267 -121 -625 -154 -796 -34 -171 -61
-316 -61 -323 0 -8 120 -11 450 -11 248 0 450 2 450 5 0 20 290 1558 295 1563
1 2 24 -27 49 -63 204 -285 565 -481 1020 -552 152 -24 494 -24 661 1 615 89
1103 338 1535 782 471 484 774 1144 892 1944 30 208 33 650 5 830 -66 418
-218 742 -466 989 -132 132 -249 215 -416 296 -202 98 -428 160 -669 184 -124
12 -411 12 -531 0z m185 -799 c580 -71 916 -474 956 -1145 25 -420 -141 -1052
-383 -1463 -257 -437 -608 -710 -1032 -802 -292 -64 -640 -43 -881 52 -358
141 -568 452 -621 918 -17 147 -6 460 21 620 134 799 540 1427 1091 1684 256
119 571 170 849 136z"/>
<path d="M8373 7140 c-766 -80 -1496 -646 -1783 -1381 -22 -57 -52 -144 -65
-194 -13 -49 -117 -549 -229 -1110 -372 -1856 -446 -2220 -451 -2242 l-5 -23
470 0 c258 0 470 4 470 8 0 5 68 346 151 758 83 412 231 1150 329 1639 99 490
188 915 198 945 104 300 348 534 662 635 77 25 102 28 277 32 228 6 298 -6
425 -69 147 -74 259 -213 304 -378 35 -129 26 -235 -49 -600 -62 -299 -597
-2960 -597 -2967 0 -8 929 -2 934 6 5 8 110 524 507 2506 117 580 169 821 190
875 121 304 409 550 721 614 117 24 391 22 492 -4 222 -57 385 -219 443 -440
11 -42 17 -101 16 -165 -1 -90 -34 -266 -332 -1744 -182 -904 -331 -1645 -331
-1647 0 -3 210 -3 468 -2 l467 3 27 135 c15 74 167 830 339 1680 l312 1545 0
210 c0 179 -3 224 -21 308 -124 560 -531 953 -1092 1052 -127 22 -434 31 -582
16 -405 -39 -796 -202 -1128 -470 l-75 -60 -29 37 c-53 68 -192 196 -268 249
-157 109 -363 193 -558 228 -110 19 -477 29 -607 15z"/>
<path d="M4841 7018 c-6 -29 -27 -136 -45 -238 -19 -102 -67 -354 -106 -560
-130 -684 -179 -942 -230 -1215 -28 -148 -62 -326 -75 -395 -13 -69 -63 -330
-110 -580 -47 -250 -97 -511 -110 -580 -13 -69 -63 -328 -110 -577 -47 -249
-97 -492 -110 -540 -39 -136 -95 -242 -160 -301 -86 -79 -121 -87 -360 -86
-110 1 -222 6 -250 12 -27 6 -53 8 -57 4 -7 -8 -152 -771 -147 -776 2 -2 47
-11 99 -21 131 -23 423 -31 558 -15 582 68 983 402 1172 979 41 126 73 277
215 1031 47 250 110 583 140 740 134 706 268 1413 360 1900 134 709 196 1033
215 1130 11 58 20 113 20 123 0 16 -28 17 -449 17 l-450 0 -10 -52z"/>
<path d="M17193 2606 c-125 -41 -206 -155 -204 -288 2 -122 65 -219 176 -270
70 -32 180 -31 253 1 67 30 135 104 158 173 22 66 15 177 -14 233 -26 51 -84
107 -142 136 -56 28 -166 35 -227 15z m204 -65 c177 -90 175 -350 -2 -444 -55
-29 -155 -29 -210 0 -90 48 -135 123 -135 225 1 118 63 201 180 239 39 13 123
3 167 -20z"/>
<path d="M17170 2320 l0 -170 30 0 30 0 0 75 c0 74 0 75 25 75 21 0 34 -14 73
-75 40 -64 51 -75 75 -75 15 0 27 2 27 5 0 3 -20 36 -45 75 -33 51 -41 70 -29
70 8 0 29 13 45 29 21 22 29 39 29 66 0 27 -8 44 -29 66 -29 28 -32 29 -130
29 l-101 0 0 -170z m178 114 c12 -8 22 -26 22 -39 0 -34 -36 -55 -92 -55 l-48
0 0 55 0 55 48 0 c27 0 57 -7 70 -16z"/>
</g>
</svg>
